PublicHD - High-Definition Bittorrent Community 
   
  http://publichd.eu/

-----------------------------------------------------


UEFA.Euro.2012.Quarter.Final.Spain.vs.France.720p.HDTV.x264-W4F [PublicHD]


Video
ID                               : 1
Format                           : AVC
Format/Info                      : Advanced Video Codec
Format profile                   : High@L4.1
Format settings, CABAC           : Yes
Format settings, ReFrames        : 5 frames
Format settings, GOP             : M=3, N=27
Codec ID                         : V_MPEG4/ISO/AVC
Duration                         : 1h 36mn
Bit rate                         : 3 301 Kbps
Width                            : 1 280 pixels
Height                           : 720 pixels
Display aspect ratio             : 16:9
Frame rate                       : 25.000 fps
Color space                      : YUV
Chroma subsampling               : 4:2:0
Bit depth                        : 8 bits
Scan type                        : Progressive
Bits/(Pixel*Frame)               : 0.143
Stream size                      : 2.23 GiB (88%)
Writing library                  : x264 core 125 r2200 999b753

Audio
ID                               : 2
Format                           : AC-3
Format/Info                      : Audio Coding 3
Mode extension                   : CM (complete main)
Muxing mode                      : Header stripping
Codec ID                         : A_AC3
Duration                         : 1h 36mn
Bit rate mode                    : Constant
Bit rate                         : 384 Kbps
Channel(s)                       : 2 channels
Channel positions                : Front: L R
Sampling rate                    : 48.0 KHz
Bit depth                        : 16 bits
Compression mode                 : Lossy
Delay relative to video          : 64ms
Stream size                      : 266 MiB (10%)
Title                            : PID 661
Language                         : English